<svg xmlns="http://www.w3.org/2000/svg" width="800" height="80" viewBox="0 0 800 80"><g transform="translate(0.5,0.5)" text-anchor="middle" font-size="10" font-family="sans-serif" font-weight="normal"><g transform="translate(16,50)"><g stroke="black" stroke-width="1" stroke-linecap="round"><line x2="779"/><line y2="26"/><line x2="779" y1="26" y2="26"/><line x1="779" x2="779" y2="26"/><line x1="682" x2="682" y2="3"/><line x1="682" x2="682" y1="26" y2="23"/><line x1="584" x2="584" y2="3"/><line x1="584" x2="584" y1="26" y2="23"/><line x1="487" x2="487" y2="3"/><line x1="487" x2="487" y1="26" y2="23"/><line x1="390" x2="390" y2="3"/><line x1="390" x2="390" y1="26" y2="23"/><line x1="292" x2="292" y2="3"/><line x1="292" x2="292" y1="26" y2="23"/><line x1="195" x2="195" y2="3"/><line x1="195" x2="195" y1="26" y2="23"/><line x1="97" x2="97" y2="3"/><line x1="97" x2="97" y1="26" y2="23"/></g><g><g/><g transform="translate(49,-9)"><g transform="translate(682)"><text y="6">0</text></g><g transform="translate(0)"><text y="6">7</text></g></g><g transform="translate(49,11)"><g transform="translate(341)"><text y="6"><tspan>CRC16</tspan></text></g></g><g transform="translate(49,31)"/></g><g text-anchor="end"><g transform="translate(-4,13)"><text y="6">62</text></g></g></g><g transform="translate(16,10)"><g stroke="black" stroke-width="1" stroke-linecap="round"><line x2="779"/><line y2="26"/><line x2="779" y1="26" y2="26"/><line x1="779" x2="779" y2="26"/><line x1="682" x2="682" y2="3"/><line x1="682" x2="682" y1="26" y2="23"/><line x1="584" x2="584" y2="3"/><line x1="584" x2="584" y1="26" y2="23"/><line x1="487" x2="487" y2="3"/><line x1="487" x2="487" y1="26" y2="23"/><line x1="390" x2="390" y2="3"/><line x1="390" x2="390" y1="26" y2="23"/><line x1="292" x2="292" y2="3"/><line x1="292" x2="292" y1="26" y2="23"/><line x1="195" x2="195" y2="3"/><line x1="195" x2="195" y1="26" y2="23"/><line x1="97" x2="97" y2="3"/><line x1="97" x2="97" y1="26" y2="23"/></g><g><g/><g transform="translate(49,-9)"><g transform="translate(682)"><text y="6">8</text></g><g transform="translate(0)"><text y="6">15</text></g></g><g transform="translate(49,11)"><g transform="translate(341)"><text y="6"><tspan>CRC16</tspan></text></g></g><g transform="translate(49,31)"/></g><g text-anchor="end"><g transform="translate(-4,13)"><text y="6">63</text></g></g></g></g></svg>