<svg xmlns="http://www.w3.org/2000/svg" width="800" height="1200" viewBox="0 0 800 1200"><g transform="translate(0.5,0.5)" text-anchor="middle" font-size="10" font-family="sans-serif" font-weight="normal"><g transform="translate(16,1170)"><g stroke="black" stroke-width="1" stroke-linecap="round"><line x2="779"/><line y2="26"/><line x2="779" y1="26" y2="26"/><line x1="779" x2="779" y2="26"/><line x1="682" x2="682" y2="3"/><line x1="682" x2="682" y1="26" y2="23"/><line x1="584" x2="584" y2="3"/><line x1="584" x2="584" y1="26" y2="23"/><line x1="487" x2="487" y2="3"/><line x1="487" x2="487" y1="26" y2="23"/><line x1="390" x2="390" y2="3"/><line x1="390" x2="390" y1="26" y2="23"/><line x1="292" x2="292" y2="3"/><line x1="292" x2="292" y1="26" y2="23"/><line x1="195" x2="195" y2="3"/><line x1="195" x2="195" y1="26" y2="23"/><line x1="97" x2="97" y2="3"/><line x1="97" x2="97" y1="26" y2="23"/></g><g><g><rect width="779" height="26" field="undefined" style="fill-opacity:0.1"/></g><g transform="translate(49,-9)"><g transform="translate(682)"><text y="6">0</text></g><g transform="translate(0)"><text y="6">7</text></g></g><g transform="translate(49,11)"/><g transform="translate(49,31)"/></g><g text-anchor="end"><g transform="translate(-4,13)"><text y="6">0</text></g></g></g><g transform="translate(16,1130)"><g stroke="black" stroke-width="1" stroke-linecap="round"><line x2="779"/><line y2="26"/><line x2="779" y1="26" y2="26"/><line x1="779" x2="779" y2="26"/><line x1="682" x2="682" y2="3"/><line x1="682" x2="682" y1="26" y2="23"/><line x1="584" x2="584" y2="3"/><line x1="584" x2="584" y1="26" y2="23"/><line x1="487" x2="487" y2="3"/><line x1="487" x2="487" y1="26" y2="23"/><line x1="390" x2="390" y2="3"/><line x1="390" x2="390" y1="26" y2="23"/><line x1="292" x2="292" y2="3"/><line x1="292" x2="292" y1="26" y2="23"/><line x1="195" x2="195" y2="3"/><line x1="195" x2="195" y1="26" y2="23"/><line x1="97" x2="97" y2="3"/><line x1="97" x2="97" y1="26" y2="23"/></g><g><g><rect width="779" height="26" field="undefined" style="fill-opacity:0.1"/></g><g transform="translate(49,-9)"><g transform="translate(682)"><text y="6">8</text></g><g transform="translate(0)"><text y="6">15</text></g></g><g transform="translate(49,11)"/><g transform="translate(49,31)"/></g><g text-anchor="end"><g transform="translate(-4,13)"><text y="6">1</text></g></g></g><g transform="translate(16,1090)"><g stroke="black" stroke-width="1" stroke-linecap="round"><line x2="779"/><line y2="26"/><line x2="779" y1="26" y2="26"/><line x1="779" x2="779" y2="26"/><line x1="682" x2="682" y2="3"/><line x1="682" x2="682" y1="26" y2="23"/><line x1="584" x2="584" y2="3"/><line x1="584" x2="584" y1="26" y2="23"/><line x1="487" x2="487" y2="3"/><line x1="487" x2="487" y1="26" y2="23"/><line x1="390" x2="390" y2="3"/><line x1="390" x2="390" y1="26" y2="23"/><line x1="292" x2="292" y2="3"/><line x1="292" x2="292" y1="26" y2="23"/><line x1="195" x2="195" y2="3"/><line x1="195" x2="195" y1="26" y2="23"/><line x1="97" x2="97" y2="3"/><line x1="97" x2="97" y1="26" y2="23"/></g><g><g/><g transform="translate(49,-9)"><g transform="translate(682)"><text y="6">16</text></g><g transform="translate(0)"><text y="6">23</text></g></g><g transform="translate(49,11)"><g transform="translate(341)"><text y="6"><tspan>SUBUCOM_MAJOR_REVISION</tspan></text></g></g><g transform="translate(49,31)"/></g><g text-anchor="end"><g transform="translate(-4,13)"><text y="6">2</text></g></g></g><g transform="translate(16,1050)"><g stroke="black" stroke-width="1" stroke-linecap="round"><line x2="779"/><line y2="26"/><line x2="779" y1="26" y2="26"/><line x1="779" x2="779" y2="26"/><line x1="682" x2="682" y2="3"/><line x1="682" x2="682" y1="26" y2="23"/><line x1="584" x2="584" y2="3"/><line x1="584" x2="584" y1="26" y2="23"/><line x1="487" x2="487" y2="3"/><line x1="487" x2="487" y1="26" y2="23"/><line x1="390" x2="390" y2="3"/><line x1="390" x2="390" y1="26" y2="23"/><line x1="292" x2="292" y2="3"/><line x1="292" x2="292" y1="26" y2="23"/><line x1="195" x2="195" y2="3"/><line x1="195" x2="195" y1="26" y2="23"/><line x1="97" x2="97" y2="3"/><line x1="97" x2="97" y1="26" y2="23"/></g><g><g/><g transform="translate(49,-9)"><g transform="translate(682)"><text y="6">24</text></g><g transform="translate(0)"><text y="6">31</text></g></g><g transform="translate(49,11)"><g transform="translate(341)"><text y="6"><tspan>SUBUCOM_MINOR_REVISION</tspan></text></g></g><g transform="translate(49,31)"/></g><g text-anchor="end"><g transform="translate(-4,13)"><text y="6">3</text></g></g></g><g transform="translate(16,1010)"><g stroke="black" stroke-width="1" stroke-linecap="round"><line x2="779"/><line y2="26"/><line x2="779" y1="26" y2="26"/><line x1="779" x2="779" y2="26"/><line x1="682" x2="682" y2="3"/><line x1="682" x2="682" y1="26" y2="23"/><line x1="584" x2="584" y2="26"/><line x1="487" x2="487" y2="3"/><line x1="487" x2="487" y1="26" y2="23"/><line x1="390" x2="390" y2="3"/><line x1="390" x2="390" y1="26" y2="23"/><line x1="292" x2="292" y2="3"/><line x1="292" x2="292" y1="26" y2="23"/><line x1="195" x2="195" y2="3"/><line x1="195" x2="195" y1="26" y2="23"/><line x1="97" x2="97" y2="3"/><line x1="97" x2="97" y1="26" y2="23"/></g><g><g><rect width="584" height="26" field="undefined" style="fill-opacity:0.1"/></g><g transform="translate(49,-9)"><g transform="translate(682)"><text y="6">32</text></g><g transform="translate(584)"><text y="6">33</text></g><g transform="translate(487)"><text y="6">34</text></g><g transform="translate(0)"><text y="6">39</text></g></g><g transform="translate(49,11)"><g transform="translate(633)"><text y="6"><tspan>SLIP_PADDLE</tspan></text></g></g><g transform="translate(49,31)"/></g><g text-anchor="end"><g transform="translate(-4,13)"><text y="6">4</text></g></g></g><g transform="translate(16,970)"><g stroke="black" stroke-width="1" stroke-linecap="round"><line x2="779"/><line y2="26"/><line x2="779" y1="26" y2="26"/><line x1="779" x2="779" y2="26"/><line x1="682" x2="682" y2="26"/><line x1="584" x2="584" y2="26"/><line x1="487" x2="487" y2="26"/><line x1="390" x2="390" y2="26"/><line x1="292" x2="292" y2="26"/><line x1="195" x2="195" y2="26"/><line x1="97" x2="97" y2="26"/></g><g><g><rect x="682" width="97" height="26" field="PLAY" style="fill-opacity:0.1;fill:#00ffd5"/><rect x="584" width="97" height="26" field="CUE" style="fill-opacity:0.1;fill:#00ffd5"/><rect x="487" width="97" height="26" field="SEARCH_FWD¹" style="fill-opacity:0.1;fill:#00ffd5"/><rect x="390" width="97" height="26" field="SEARCH_REV¹" style="fill-opacity:0.1;fill:#00ffd5"/><rect x="292" width="97" height="26" field="TRACK_FWD¹" style="fill-opacity:0.1;fill:#00ffd5"/><rect x="195" width="97" height="26" field="TRACK_REV¹" style="fill-opacity:0.1;fill:#00ffd5"/><rect x="97" width="97" height="26" field="BEATJUMP_FWD" style="fill-opacity:0.1;fill:#00ffd5"/><rect width="97" height="26" field="BEATJUMP_REV" style="fill-opacity:0.1;fill:#00ffd5"/></g><g transform="translate(49,-9)"><g transform="translate(682)"><text y="6">40</text></g><g transform="translate(584)"><text y="6">41</text></g><g transform="translate(487)"><text y="6">42</text></g><g transform="translate(390)"><text y="6">43</text></g><g transform="translate(292)"><text y="6">44</text></g><g transform="translate(195)"><text y="6">45</text></g><g transform="translate(97)"><text y="6">46</text></g><g transform="translate(0)"><text y="6">47</text></g></g><g transform="translate(49,11)"><g transform="translate(682)"><text y="6"><tspan>PLAY</tspan></text></g><g transform="translate(584)"><text y="6"><tspan>CUE</tspan></text></g><g transform="translate(487)"><text y="6"><tspan>SEARCH_FWD¹</tspan></text></g><g transform="translate(390)"><text y="6"><tspan>SEARCH_REV¹</tspan></text></g><g transform="translate(292)"><text y="6"><tspan>TRACK_FWD¹</tspan></text></g><g transform="translate(195)"><text y="6"><tspan>TRACK_REV¹</tspan></text></g><g transform="translate(97)"><text y="6"><tspan>BEATJUMP_FWD</tspan></text></g><g transform="translate(0)"><text y="6"><tspan>BEATJUMP_REV</tspan></text></g></g><g transform="translate(49,31)"/></g><g text-anchor="end"><g transform="translate(-4,13)"><text y="6">5</text></g></g></g><g transform="translate(16,930)"><g stroke="black" stroke-width="1" stroke-linecap="round"><line x2="779"/><line y2="26"/><line x2="779" y1="26" y2="26"/><line x1="779" x2="779" y2="26"/><line x1="682" x2="682" y2="26"/><line x1="584" x2="584" y2="26"/><line x1="487" x2="487" y2="26"/><line x1="390" x2="390" y2="26"/><line x1="292" x2="292" y2="26"/><line x1="195" x2="195" y2="26"/><line x1="97" x2="97" y2="26"/></g><g><g><rect x="682" width="97" height="26" field="TEMPO_RESET" style="fill-opacity:0.1;fill:#00ffd5"/><rect x="584" width="97" height="26" field="TEMPO_MASTER²" style="fill-opacity:0.1;fill:#00ffd5"/><rect x="487" width="97" height="26" field="TEMPO_RANGE²" style="fill-opacity:0.1;fill:#00ffd5"/><rect x="390" width="97" height="26" field="undefined" style="fill-opacity:0.1"/><rect x="292" width="97" height="26" field="KEYSYNC²" style="fill-opacity:0.1;fill:#00ffd5"/><rect x="195" width="97" height="26" field="BEATSYNC²" style="fill-opacity:0.1;fill:#00ffd5"/><rect x="97" width="97" height="26" field="MASTER²" style="fill-opacity:0.1;fill:#00ffd5"/><rect width="97" height="26" field="undefined" style="fill-opacity:0.1"/></g><g transform="translate(49,-9)"><g transform="translate(682)"><text y="6">48</text></g><g transform="translate(584)"><text y="6">49</text></g><g transform="translate(487)"><text y="6">50</text></g><g transform="translate(390)"><text y="6">51</text></g><g transform="translate(292)"><text y="6">52</text></g><g transform="translate(195)"><text y="6">53</text></g><g transform="translate(97)"><text y="6">54</text></g><g transform="translate(0)"><text y="6">55</text></g></g><g transform="translate(49,11)"><g transform="translate(682)"><text y="6"><tspan>TEMPO_RESET</tspan></text></g><g transform="translate(584)"><text y="6"><tspan>TEMPO_MASTER²</tspan></text></g><g transform="translate(487)"><text y="6"><tspan>TEMPO_RANGE²</tspan></text></g><g transform="translate(292)"><text y="6"><tspan>KEYSYNC²</tspan></text></g><g transform="translate(195)"><text y="6"><tspan>BEATSYNC²</tspan></text></g><g transform="translate(97)"><text y="6"><tspan>MASTER²</tspan></text></g></g><g transform="translate(49,31)"/></g><g text-anchor="end"><g transform="translate(-4,13)"><text y="6">6</text></g></g></g><g transform="translate(16,890)"><g stroke="black" stroke-width="1" stroke-linecap="round"><line x2="779"/><line y2="26"/><line x2="779" y1="26" y2="26"/><line x1="779" x2="779" y2="26"/><line x1="682" x2="682" y2="26"/><line x1="584" x2="584" y2="26"/><line x1="487" x2="487" y2="26"/><line x1="390" x2="390" y2="26"/><line x1="292" x2="292" y2="26"/><line x1="195" x2="195" y2="26"/><line x1="97" x2="97" y2="26"/></g><g><g><rect x="682" width="97" height="26" field="LOOP_IN" style="fill-opacity:0.1;fill:#00ffd5"/><rect x="584" width="97" height="26" field="LOOP_OUT" style="fill-opacity:0.1;fill:#00ffd5"/><rect x="487" width="97" height="26" field="RELOOP" style="fill-opacity:0.1;fill:#00ffd5"/><rect x="390" width="97" height="26" field="undefined" style="fill-opacity:0.1"/><rect x="292" width="97" height="26" field="BEAT_LOOP_4" style="fill-opacity:0.1;fill:#00ffd5"/><rect x="195" width="97" height="26" field="BEAT_LOOP_8" style="fill-opacity:0.1;fill:#00ffd5"/><rect x="97" width="97" height="26" field="undefined" style="fill-opacity:0.1"/><rect width="97" height="26" field="SLIP" style="fill-opacity:0.1;fill:#00ffd5"/></g><g transform="translate(49,-9)"><g transform="translate(682)"><text y="6">56</text></g><g transform="translate(584)"><text y="6">57</text></g><g transform="translate(487)"><text y="6">58</text></g><g transform="translate(390)"><text y="6">59</text></g><g transform="translate(292)"><text y="6">60</text></g><g transform="translate(195)"><text y="6">61</text></g><g transform="translate(97)"><text y="6">62</text></g><g transform="translate(0)"><text y="6">63</text></g></g><g transform="translate(49,11)"><g transform="translate(682)"><text y="6"><tspan>LOOP_IN</tspan></text></g><g transform="translate(584)"><text y="6"><tspan>LOOP_OUT</tspan></text></g><g transform="translate(487)"><text y="6"><tspan>RELOOP</tspan></text></g><g transform="translate(292)"><text y="6"><tspan>BEAT_LOOP_4</tspan></text></g><g transform="translate(195)"><text y="6"><tspan>BEAT_LOOP_8</tspan></text></g><g transform="translate(0)"><text y="6"><tspan>SLIP</tspan></text></g></g><g transform="translate(49,31)"/></g><g text-anchor="end"><g transform="translate(-4,13)"><text y="6">7</text></g></g></g><g transform="translate(16,850)"><g stroke="black" stroke-width="1" stroke-linecap="round"><line x2="779"/><line y2="26"/><line x2="779" y1="26" y2="26"/><line x1="779" x2="779" y2="26"/><line x1="682" x2="682" y2="26"/><line x1="584" x2="584" y2="26"/><line x1="487" x2="487" y2="26"/><line x1="390" x2="390" y2="26"/><line x1="292" x2="292" y2="26"/><line x1="195" x2="195" y2="26"/><line x1="97" x2="97" y2="3"/><line x1="97" x2="97" y1="26" y2="23"/></g><g><g><rect x="682" width="97" height="26" field="MEMORY³" style="fill-opacity:0.1;fill:#00ffd5"/><rect x="584" width="97" height="26" field="MEM_DELETE³" style="fill-opacity:0.1;fill:#00ffd5"/><rect x="487" width="97" height="26" field="MEM_CUE_FWD³" style="fill-opacity:0.1;fill:#00ffd5"/><rect x="390" width="97" height="26" field="MEM_CUE_REV³" style="fill-opacity:0.1;fill:#00ffd5"/><rect x="292" width="97" height="26" field="undefined" style="fill-opacity:0.1"/><rect x="195" width="97" height="26" field="CALL_DELETE" style="fill-opacity:0.1;fill:#00ffd5"/><rect width="195" height="26" field="undefined" style="fill-opacity:0.1"/></g><g transform="translate(49,-9)"><g transform="translate(682)"><text y="6">64</text></g><g transform="translate(584)"><text y="6">65</text></g><g transform="translate(487)"><text y="6">66</text></g><g transform="translate(390)"><text y="6">67</text></g><g transform="translate(292)"><text y="6">68</text></g><g transform="translate(195)"><text y="6">69</text></g><g transform="translate(97)"><text y="6">70</text></g><g transform="translate(0)"><text y="6">71</text></g></g><g transform="translate(49,11)"><g transform="translate(682)"><text y="6"><tspan>MEMORY³</tspan></text></g><g transform="translate(584)"><text y="6"><tspan>MEM_DELETE³</tspan></text></g><g transform="translate(487)"><text y="6"><tspan>MEM_CUE_FWD³</tspan></text></g><g transform="translate(390)"><text y="6"><tspan>MEM_CUE_REV³</tspan></text></g><g transform="translate(195)"><text y="6"><tspan>CALL_DELETE</tspan></text></g></g><g transform="translate(49,31)"/></g><g text-anchor="end"><g transform="translate(-4,13)"><text y="6">8</text></g></g></g><g transform="translate(16,810)"><g stroke="black" stroke-width="1" stroke-linecap="round"><line x2="779"/><line y2="26"/><line x2="779" y1="26" y2="26"/><line x1="779" x2="779" y2="26"/><line x1="682" x2="682" y2="26"/><line x1="584" x2="584" y2="26"/><line x1="487" x2="487" y2="26"/><line x1="390" x2="390" y2="26"/><line x1="292" x2="292" y2="26"/><line x1="195" x2="195" y2="26"/><line x1="97" x2="97" y2="26"/></g><g><g><rect x="682" width="97" height="26" field="HOTCUE_A" style="fill-opacity:0.1;fill:#00ffd5"/><rect x="584" width="97" height="26" field="HOTCUE_B" style="fill-opacity:0.1;fill:#00ffd5"/><rect x="487" width="97" height="26" field="HOTCUE_C" style="fill-opacity:0.1;fill:#00ffd5"/><rect x="390" width="97" height="26" field="HOTCUE_D" style="fill-opacity:0.1;fill:#00ffd5"/><rect x="292" width="97" height="26" field="HOTCUE_E" style="fill-opacity:0.1;fill:#00ffd5"/><rect x="195" width="97" height="26" field="HOTCUE_F" style="fill-opacity:0.1;fill:#00ffd5"/><rect x="97" width="97" height="26" field="HOTCUE_G" style="fill-opacity:0.1;fill:#00ffd5"/><rect width="97" height="26" field="HOTCUE_H" style="fill-opacity:0.1;fill:#00ffd5"/></g><g transform="translate(49,-9)"><g transform="translate(682)"><text y="6">72</text></g><g transform="translate(584)"><text y="6">73</text></g><g transform="translate(487)"><text y="6">74</text></g><g transform="translate(390)"><text y="6">75</text></g><g transform="translate(292)"><text y="6">76</text></g><g transform="translate(195)"><text y="6">77</text></g><g transform="translate(97)"><text y="6">78</text></g><g transform="translate(0)"><text y="6">79</text></g></g><g transform="translate(49,11)"><g transform="translate(682)"><text y="6"><tspan>HOTCUE_A</tspan></text></g><g transform="translate(584)"><text y="6"><tspan>HOTCUE_B</tspan></text></g><g transform="translate(487)"><text y="6"><tspan>HOTCUE_C</tspan></text></g><g transform="translate(390)"><text y="6"><tspan>HOTCUE_D</tspan></text></g><g transform="translate(292)"><text y="6"><tspan>HOTCUE_E</tspan></text></g><g transform="translate(195)"><text y="6"><tspan>HOTCUE_F</tspan></text></g><g transform="translate(97)"><text y="6"><tspan>HOTCUE_G</tspan></text></g><g transform="translate(0)"><text y="6"><tspan>HOTCUE_H</tspan></text></g></g><g transform="translate(49,31)"/></g><g text-anchor="end"><g transform="translate(-4,13)"><text y="6">9</text></g></g></g><g transform="translate(16,770)"><g stroke="black" stroke-width="1" stroke-linecap="round"><line x2="779"/><line y2="26"/><line x2="779" y1="26" y2="26"/><line x1="779" x2="779" y2="26"/><line x1="682" x2="682" y2="26"/><line x1="584" x2="584" y2="26"/><line x1="487" x2="487" y2="26"/><line x1="390" x2="390" y2="26"/><line x1="292" x2="292" y2="26"/><line x1="195" x2="195" y2="26"/><line x1="97" x2="97" y2="26"/></g><g><g><rect x="682" width="97" height="26" field="SOURCE⁴" style="fill-opacity:0.1;fill:#00ffd5"/><rect x="584" width="97" height="26" field="BROWSE⁴" style="fill-opacity:0.1;fill:#00ffd5"/><rect x="487" width="97" height="26" field="TAGLIST⁴" style="fill-opacity:0.1;fill:#00ffd5"/><rect x="390" width="97" height="26" field="PLAYLIST⁴" style="fill-opacity:0.1;fill:#00ffd5"/><rect x="292" width="97" height="26" field="SEARCH⁴" style="fill-opacity:0.1;fill:#00ffd5"/><rect x="195" width="97" height="26" field="MENU⁴" style="fill-opacity:0.1;fill:#00ffd5"/><rect x="97" width="97" height="26" field="undefined" style="fill-opacity:0.1"/><rect width="97" height="26" field="JOG_MODE" style="fill-opacity:0.1;fill:#00ffd5"/></g><g transform="translate(49,-9)"><g transform="translate(682)"><text y="6">80</text></g><g transform="translate(584)"><text y="6">81</text></g><g transform="translate(487)"><text y="6">82</text></g><g transform="translate(390)"><text y="6">83</text></g><g transform="translate(292)"><text y="6">84</text></g><g transform="translate(195)"><text y="6">85</text></g><g transform="translate(97)"><text y="6">86</text></g><g transform="translate(0)"><text y="6">87</text></g></g><g transform="translate(49,11)"><g transform="translate(682)"><text y="6"><tspan>SOURCE⁴</tspan></text></g><g transform="translate(584)"><text y="6"><tspan>BROWSE⁴</tspan></text></g><g transform="translate(487)"><text y="6"><tspan>TAGLIST⁴</tspan></text></g><g transform="translate(390)"><text y="6"><tspan>PLAYLIST⁴</tspan></text></g><g transform="translate(292)"><text y="6"><tspan>SEARCH⁴</tspan></text></g><g transform="translate(195)"><text y="6"><tspan>MENU⁴</tspan></text></g><g transform="translate(0)"><text y="6"><tspan>JOG_MODE</tspan></text></g></g><g transform="translate(49,31)"/></g><g text-anchor="end"><g transform="translate(-4,13)"><text y="6">10</text></g></g></g><g transform="translate(16,730)"><g stroke="black" stroke-width="1" stroke-linecap="round"><line x2="779"/><line y2="26"/><line x2="779" y1="26" y2="26"/><line x1="779" x2="779" y2="26"/><line x1="682" x2="682" y2="26"/><line x1="584" x2="584" y2="26"/><line x1="487" x2="487" y2="26"/><line x1="390" x2="390" y2="26"/><line x1="292" x2="292" y2="26"/><line x1="195" x2="195" y2="26"/><line x1="97" x2="97" y2="26"/></g><g><g><rect x="682" width="97" height="26" field="BACK⁵" style="fill-opacity:0.1;fill:#00ffd5"/><rect x="584" width="97" height="26" field="TAG_TRACK⁵" style="fill-opacity:0.1;fill:#00ffd5"/><rect x="487" width="97" height="26" field="TRACK_FILTER⁵" style="fill-opacity:0.1;fill:#00ffd5"/><rect x="390" width="97" height="26" field="SHORTCUT⁵" style="fill-opacity:0.1;fill:#00ffd5"/><rect x="292" width="97" height="26" field="ROTARY_SEL⁵" style="fill-opacity:0.1;fill:#00ffd5"/><rect x="195" width="97" height="26" field="undefined" style="fill-opacity:0.1"/><rect x="97" width="97" height="26" field="TIME" style="fill-opacity:0.1;fill:#00ffd5"/><rect width="97" height="26" field="QUANTIZE" style="fill-opacity:0.1;fill:#00ffd5"/></g><g transform="translate(49,-9)"><g transform="translate(682)"><text y="6">88</text></g><g transform="translate(584)"><text y="6">89</text></g><g transform="translate(487)"><text y="6">90</text></g><g transform="translate(390)"><text y="6">91</text></g><g transform="translate(292)"><text y="6">92</text></g><g transform="translate(195)"><text y="6">93</text></g><g transform="translate(97)"><text y="6">94</text></g><g transform="translate(0)"><text y="6">95</text></g></g><g transform="translate(49,11)"><g transform="translate(682)"><text y="6"><tspan>BACK⁵</tspan></text></g><g transform="translate(584)"><text y="6"><tspan>TAG_TRACK⁵</tspan></text></g><g transform="translate(487)"><text y="6"><tspan>TRACK_FILTER⁵</tspan></text></g><g transform="translate(390)"><text y="6"><tspan>SHORTCUT⁵</tspan></text></g><g transform="translate(292)"><text y="6"><tspan>ROTARY_SEL⁵</tspan></text></g><g transform="translate(97)"><text y="6"><tspan>TIME</tspan></text></g><g transform="translate(0)"><text y="6"><tspan>QUANTIZE</tspan></text></g></g><g transform="translate(49,31)"/></g><g text-anchor="end"><g transform="translate(-4,13)"><text y="6">11</text></g></g></g><g transform="translate(16,690)"><g stroke="black" stroke-width="1" stroke-linecap="round"><line x2="779"/><line y2="26"/><line x2="779" y1="26" y2="26"/><line x1="779" x2="779" y2="26"/><line x1="682" x2="682" y2="26"/><line x1="584" x2="584" y2="26"/><line x1="487" x2="487" y2="3"/><line x1="487" x2="487" y1="26" y2="23"/><line x1="390" x2="390" y2="3"/><line x1="390" x2="390" y1="26" y2="23"/><line x1="292" x2="292" y2="3"/><line x1="292" x2="292" y1="26" y2="23"/><line x1="195" x2="195" y2="3"/><line x1="195" x2="195" y1="26" y2="23"/><line x1="97" x2="97" y2="3"/><line x1="97" x2="97" y1="26" y2="23"/></g><g><g><rect x="682" width="97" height="26" field="SD" style="fill-opacity:0.1;fill:#00ffd5"/><rect x="584" width="97" height="26" field="USB_STOP" style="fill-opacity:0.1;fill:#00ffd5"/><rect width="584" height="26" field="undefined" style="fill-opacity:0.1"/></g><g transform="translate(49,-9)"><g transform="translate(682)"><text y="6">96</text></g><g transform="translate(584)"><text y="6">97</text></g><g transform="translate(487)"><text y="6">98</text></g><g transform="translate(0)"><text y="6">103</text></g></g><g transform="translate(49,11)"><g transform="translate(682)"><text y="6"><tspan>SD</tspan></text></g><g transform="translate(584)"><text y="6"><tspan>USB_STOP</tspan></text></g></g><g transform="translate(49,31)"/></g><g text-anchor="end"><g transform="translate(-4,13)"><text y="6">12</text></g></g></g><g transform="translate(16,650)"><g stroke="black" stroke-width="1" stroke-linecap="round"><line x2="779"/><line y2="26"/><line x2="779" y1="26" y2="26"/><line x1="779" x2="779" y2="26"/><line x1="682" x2="682" y2="3"/><line x1="682" x2="682" y1="26" y2="23"/><line x1="584" x2="584" y2="3"/><line x1="584" x2="584" y1="26" y2="23"/><line x1="487" x2="487" y2="3"/><line x1="487" x2="487" y1="26" y2="23"/><line x1="390" x2="390" y2="3"/><line x1="390" x2="390" y1="26" y2="23"/><line x1="292" x2="292" y2="3"/><line x1="292" x2="292" y1="26" y2="23"/><line x1="195" x2="195" y2="3"/><line x1="195" x2="195" y1="26" y2="23"/><line x1="97" x2="97" y2="3"/><line x1="97" x2="97" y1="26" y2="23"/></g><g><g><rect width="779" height="26" field="undefined" style="fill-opacity:0.1"/></g><g transform="translate(49,-9)"><g transform="translate(682)"><text y="6">104</text></g><g transform="translate(0)"><text y="6">111</text></g></g><g transform="translate(49,11)"/><g transform="translate(49,31)"/></g><g text-anchor="end"><g transform="translate(-4,13)"><text y="6">13</text></g></g></g><g transform="translate(16,610)"><g stroke="black" stroke-width="1" stroke-linecap="round"><line x2="779"/><line y2="26"/><line x2="779" y1="26" y2="26"/><line x1="779" x2="779" y2="26"/><line x1="682" x2="682" y2="3"/><line x1="682" x2="682" y1="26" y2="23"/><line x1="584" x2="584" y2="3"/><line x1="584" x2="584" y1="26" y2="23"/><line x1="487" x2="487" y2="3"/><line x1="487" x2="487" y1="26" y2="23"/><line x1="390" x2="390" y2="3"/><line x1="390" x2="390" y1="26" y2="23"/><line x1="292" x2="292" y2="3"/><line x1="292" x2="292" y1="26" y2="23"/><line x1="195" x2="195" y2="3"/><line x1="195" x2="195" y1="26" y2="23"/><line x1="97" x2="97" y2="3"/><line x1="97" x2="97" y1="26" y2="23"/></g><g><g/><g transform="translate(49,-9)"><g transform="translate(682)"><text y="6">112</text></g><g transform="translate(0)"><text y="6">119</text></g></g><g transform="translate(49,11)"><g transform="translate(341)"><text y="6"><tspan>ROTARY_ENCODER_POS</tspan></text></g></g><g transform="translate(49,31)"/></g><g text-anchor="end"><g transform="translate(-4,13)"><text y="6">14</text></g></g></g><g transform="translate(16,570)"><g stroke="black" stroke-width="1" stroke-linecap="round"><line x2="779"/><line y2="26"/><line x2="779" y1="26" y2="26"/><line x1="779" x2="779" y2="26"/><line x1="682" x2="682" y2="3"/><line x1="682" x2="682" y1="26" y2="23"/><line x1="584" x2="584" y2="3"/><line x1="584" x2="584" y1="26" y2="23"/><line x1="487" x2="487" y2="3"/><line x1="487" x2="487" y1="26" y2="23"/><line x1="390" x2="390" y2="3"/><line x1="390" x2="390" y1="26" y2="23"/><line x1="292" x2="292" y2="3"/><line x1="292" x2="292" y1="26" y2="23"/><line x1="195" x2="195" y2="3"/><line x1="195" x2="195" y1="26" y2="23"/><line x1="97" x2="97" y2="3"/><line x1="97" x2="97" y1="26" y2="23"/></g><g><g/><g transform="translate(49,-9)"><g transform="translate(682)"><text y="6">120</text></g><g transform="translate(0)"><text y="6">127</text></g></g><g transform="translate(49,11)"><g transform="translate(341)"><text y="6"><tspan>ROTARY_ENCODER_POS</tspan></text></g></g><g transform="translate(49,31)"/></g><g text-anchor="end"><g transform="translate(-4,13)"><text y="6">15</text></g></g></g><g transform="translate(16,530)"><g stroke="black" stroke-width="1" stroke-linecap="round"><line x2="779"/><line y2="26"/><line x2="779" y1="26" y2="26"/><line x1="779" x2="779" y2="26"/><line x1="682" x2="682" y2="3"/><line x1="682" x2="682" y1="26" y2="23"/><line x1="584" x2="584" y2="3"/><line x1="584" x2="584" y1="26" y2="23"/><line x1="487" x2="487" y2="3"/><line x1="487" x2="487" y1="26" y2="23"/><line x1="390" x2="390" y2="3"/><line x1="390" x2="390" y1="26" y2="23"/><line x1="292" x2="292" y2="3"/><line x1="292" x2="292" y1="26" y2="23"/><line x1="195" x2="195" y2="3"/><line x1="195" x2="195" y1="26" y2="23"/><line x1="97" x2="97" y2="3"/><line x1="97" x2="97" y1="26" y2="23"/></g><g><g/><g transform="translate(49,-9)"><g transform="translate(682)"><text y="6">128</text></g><g transform="translate(0)"><text y="6">135</text></g></g><g transform="translate(49,11)"><g transform="translate(341)"><text y="6"><tspan>TOUCHSCREEN_X</tspan></text></g></g><g transform="translate(49,31)"/></g><g text-anchor="end"><g transform="translate(-4,13)"><text y="6">16</text></g></g></g><g transform="translate(16,490)"><g stroke="black" stroke-width="1" stroke-linecap="round"><line x2="779"/><line y2="26"/><line x2="779" y1="26" y2="26"/><line x1="779" x2="779" y2="26"/><line x1="682" x2="682" y2="3"/><line x1="682" x2="682" y1="26" y2="23"/><line x1="584" x2="584" y2="3"/><line x1="584" x2="584" y1="26" y2="23"/><line x1="487" x2="487" y2="3"/><line x1="487" x2="487" y1="26" y2="23"/><line x1="390" x2="390" y2="3"/><line x1="390" x2="390" y1="26" y2="23"/><line x1="292" x2="292" y2="3"/><line x1="292" x2="292" y1="26" y2="23"/><line x1="195" x2="195" y2="3"/><line x1="195" x2="195" y1="26" y2="23"/><line x1="97" x2="97" y2="3"/><line x1="97" x2="97" y1="26" y2="23"/></g><g><g/><g transform="translate(49,-9)"><g transform="translate(682)"><text y="6">136</text></g><g transform="translate(0)"><text y="6">143</text></g></g><g transform="translate(49,11)"><g transform="translate(341)"><text y="6"><tspan>TOUCHSCREEN_X</tspan></text></g></g><g transform="translate(49,31)"/></g><g text-anchor="end"><g transform="translate(-4,13)"><text y="6">17</text></g></g></g><g transform="translate(16,450)"><g stroke="black" stroke-width="1" stroke-linecap="round"><line x2="779"/><line y2="26"/><line x2="779" y1="26" y2="26"/><line x1="779" x2="779" y2="26"/><line x1="682" x2="682" y2="3"/><line x1="682" x2="682" y1="26" y2="23"/><line x1="584" x2="584" y2="3"/><line x1="584" x2="584" y1="26" y2="23"/><line x1="487" x2="487" y2="3"/><line x1="487" x2="487" y1="26" y2="23"/><line x1="390" x2="390" y2="3"/><line x1="390" x2="390" y1="26" y2="23"/><line x1="292" x2="292" y2="3"/><line x1="292" x2="292" y1="26" y2="23"/><line x1="195" x2="195" y2="3"/><line x1="195" x2="195" y1="26" y2="23"/><line x1="97" x2="97" y2="3"/><line x1="97" x2="97" y1="26" y2="23"/></g><g><g/><g transform="translate(49,-9)"><g transform="translate(682)"><text y="6">144</text></g><g transform="translate(0)"><text y="6">151</text></g></g><g transform="translate(49,11)"><g transform="translate(341)"><text y="6"><tspan>TOUCHSCREEN_Y</tspan></text></g></g><g transform="translate(49,31)"/></g><g text-anchor="end"><g transform="translate(-4,13)"><text y="6">18</text></g></g></g><g transform="translate(16,410)"><g stroke="black" stroke-width="1" stroke-linecap="round"><line x2="779"/><line y2="26"/><line x2="779" y1="26" y2="26"/><line x1="779" x2="779" y2="26"/><line x1="682" x2="682" y2="3"/><line x1="682" x2="682" y1="26" y2="23"/><line x1="584" x2="584" y2="3"/><line x1="584" x2="584" y1="26" y2="23"/><line x1="487" x2="487" y2="3"/><line x1="487" x2="487" y1="26" y2="23"/><line x1="390" x2="390" y2="3"/><line x1="390" x2="390" y1="26" y2="23"/><line x1="292" x2="292" y2="3"/><line x1="292" x2="292" y1="26" y2="23"/><line x1="195" x2="195" y2="3"/><line x1="195" x2="195" y1="26" y2="23"/><line x1="97" x2="97" y2="3"/><line x1="97" x2="97" y1="26" y2="23"/></g><g><g/><g transform="translate(49,-9)"><g transform="translate(682)"><text y="6">152</text></g><g transform="translate(0)"><text y="6">159</text></g></g><g transform="translate(49,11)"><g transform="translate(341)"><text y="6"><tspan>TOUCHSCREEN_Y</tspan></text></g></g><g transform="translate(49,31)"/></g><g text-anchor="end"><g transform="translate(-4,13)"><text y="6">19</text></g></g></g><g transform="translate(16,370)"><g stroke="black" stroke-width="1" stroke-linecap="round"><line x2="779"/><line y2="26"/><line x2="779" y1="26" y2="26"/><line x1="779" x2="779" y2="26"/><line x1="682" x2="682" y2="3"/><line x1="682" x2="682" y1="26" y2="23"/><line x1="584" x2="584" y2="3"/><line x1="584" x2="584" y1="26" y2="23"/><line x1="487" x2="487" y2="3"/><line x1="487" x2="487" y1="26" y2="23"/><line x1="390" x2="390" y2="3"/><line x1="390" x2="390" y1="26" y2="23"/><line x1="292" x2="292" y2="3"/><line x1="292" x2="292" y1="26" y2="23"/><line x1="195" x2="195" y2="3"/><line x1="195" x2="195" y1="26" y2="23"/><line x1="97" x2="97" y2="3"/><line x1="97" x2="97" y1="26" y2="23"/></g><g><g/><g transform="translate(49,-9)"><g transform="translate(682)"><text y="6">160</text></g><g transform="translate(0)"><text y="6">167</text></g></g><g transform="translate(49,11)"><g transform="translate(341)"><text y="6"><tspan>TBD?</tspan></text></g></g><g transform="translate(49,31)"/></g><g text-anchor="end"><g transform="translate(-4,13)"><text y="6">20</text></g></g></g><g transform="translate(16,330)"><g stroke="black" stroke-width="1" stroke-linecap="round"><line x2="779"/><line y2="26"/><line x2="779" y1="26" y2="26"/><line x1="779" x2="779" y2="26"/><line x1="682" x2="682" y2="3"/><line x1="682" x2="682" y1="26" y2="23"/><line x1="584" x2="584" y2="3"/><line x1="584" x2="584" y1="26" y2="23"/><line x1="487" x2="487" y2="3"/><line x1="487" x2="487" y1="26" y2="23"/><line x1="390" x2="390" y2="3"/><line x1="390" x2="390" y1="26" y2="23"/><line x1="292" x2="292" y2="3"/><line x1="292" x2="292" y1="26" y2="23"/><line x1="195" x2="195" y2="3"/><line x1="195" x2="195" y1="26" y2="23"/><line x1="97" x2="97" y2="3"/><line x1="97" x2="97" y1="26" y2="23"/></g><g><g/><g transform="translate(49,-9)"><g transform="translate(682)"><text y="6">168</text></g><g transform="translate(0)"><text y="6">175</text></g></g><g transform="translate(49,11)"><g transform="translate(341)"><text y="6"><tspan>TBD?</tspan></text></g></g><g transform="translate(49,31)"/></g><g text-anchor="end"><g transform="translate(-4,13)"><text y="6">21</text></g></g></g><g transform="translate(16,290)"><g stroke="black" stroke-width="1" stroke-linecap="round"><line x2="779"/><line y2="26"/><line x2="779" y1="26" y2="26"/><line x1="779" x2="779" y2="26"/><line x1="682" x2="682" y2="3"/><line x1="682" x2="682" y1="26" y2="23"/><line x1="584" x2="584" y2="3"/><line x1="584" x2="584" y1="26" y2="23"/><line x1="487" x2="487" y2="3"/><line x1="487" x2="487" y1="26" y2="23"/><line x1="390" x2="390" y2="3"/><line x1="390" x2="390" y1="26" y2="23"/><line x1="292" x2="292" y2="3"/><line x1="292" x2="292" y1="26" y2="23"/><line x1="195" x2="195" y2="3"/><line x1="195" x2="195" y1="26" y2="23"/><line x1="97" x2="97" y2="3"/><line x1="97" x2="97" y1="26" y2="23"/></g><g><g/><g transform="translate(49,-9)"><g transform="translate(682)"><text y="6">176</text></g><g transform="translate(0)"><text y="6">183</text></g></g><g transform="translate(49,11)"><g transform="translate(341)"><text y="6"><tspan>TEMPO_SLIDER_POS</tspan></text></g></g><g transform="translate(49,31)"/></g><g text-anchor="end"><g transform="translate(-4,13)"><text y="6">22</text></g></g></g><g transform="translate(16,250)"><g stroke="black" stroke-width="1" stroke-linecap="round"><line x2="779"/><line y2="26"/><line x2="779" y1="26" y2="26"/><line x1="779" x2="779" y2="26"/><line x1="682" x2="682" y2="3"/><line x1="682" x2="682" y1="26" y2="23"/><line x1="584" x2="584" y2="3"/><line x1="584" x2="584" y1="26" y2="23"/><line x1="487" x2="487" y2="3"/><line x1="487" x2="487" y1="26" y2="23"/><line x1="390" x2="390" y2="3"/><line x1="390" x2="390" y1="26" y2="23"/><line x1="292" x2="292" y2="3"/><line x1="292" x2="292" y1="26" y2="23"/><line x1="195" x2="195" y2="3"/><line x1="195" x2="195" y1="26" y2="23"/><line x1="97" x2="97" y2="3"/><line x1="97" x2="97" y1="26" y2="23"/></g><g><g/><g transform="translate(49,-9)"><g transform="translate(682)"><text y="6">184</text></g><g transform="translate(0)"><text y="6">191</text></g></g><g transform="translate(49,11)"><g transform="translate(341)"><text y="6"><tspan>TEMPO_SLIDER_POS</tspan></text></g></g><g transform="translate(49,31)"/></g><g text-anchor="end"><g transform="translate(-4,13)"><text y="6">23</text></g></g></g><g transform="translate(16,210)"><g stroke="black" stroke-width="1" stroke-linecap="round"><line x2="779"/><line y2="26"/><line x2="779" y1="26" y2="26"/><line x1="779" x2="779" y2="26"/><line x1="682" x2="682" y2="3"/><line x1="682" x2="682" y1="26" y2="23"/><line x1="584" x2="584" y2="3"/><line x1="584" x2="584" y1="26" y2="23"/><line x1="487" x2="487" y2="3"/><line x1="487" x2="487" y1="26" y2="23"/><line x1="390" x2="390" y2="3"/><line x1="390" x2="390" y1="26" y2="23"/><line x1="292" x2="292" y2="3"/><line x1="292" x2="292" y1="26" y2="23"/><line x1="195" x2="195" y2="3"/><line x1="195" x2="195" y1="26" y2="23"/><line x1="97" x2="97" y2="3"/><line x1="97" x2="97" y1="26" y2="23"/></g><g><g/><g transform="translate(49,-9)"><g transform="translate(682)"><text y="6">192</text></g><g transform="translate(0)"><text y="6">199</text></g></g><g transform="translate(49,11)"><g transform="translate(341)"><text y="6"><tspan>VINYL_SPEED_POS</tspan></text></g></g><g transform="translate(49,31)"/></g><g text-anchor="end"><g transform="translate(-4,13)"><text y="6">24</text></g></g></g><g transform="translate(16,170)"><g stroke="black" stroke-width="1" stroke-linecap="round"><line x2="779"/><line y2="26"/><line x2="779" y1="26" y2="26"/><line x1="779" x2="779" y2="26"/><line x1="682" x2="682" y2="3"/><line x1="682" x2="682" y1="26" y2="23"/><line x1="584" x2="584" y2="3"/><line x1="584" x2="584" y1="26" y2="23"/><line x1="487" x2="487" y2="3"/><line x1="487" x2="487" y1="26" y2="23"/><line x1="390" x2="390" y2="3"/><line x1="390" x2="390" y1="26" y2="23"/><line x1="292" x2="292" y2="3"/><line x1="292" x2="292" y1="26" y2="23"/><line x1="195" x2="195" y2="3"/><line x1="195" x2="195" y1="26" y2="23"/><line x1="97" x2="97" y2="3"/><line x1="97" x2="97" y1="26" y2="23"/></g><g><g/><g transform="translate(49,-9)"><g transform="translate(682)"><text y="6">200</text></g><g transform="translate(0)"><text y="6">207</text></g></g><g transform="translate(49,11)"><g transform="translate(341)"><text y="6"><tspan>JOG_POS</tspan></text></g></g><g transform="translate(49,31)"/></g><g text-anchor="end"><g transform="translate(-4,13)"><text y="6">25</text></g></g></g><g transform="translate(16,130)"><g stroke="black" stroke-width="1" stroke-linecap="round"><line x2="779"/><line y2="26"/><line x2="779" y1="26" y2="26"/><line x1="779" x2="779" y2="26"/><line x1="682" x2="682" y2="3"/><line x1="682" x2="682" y1="26" y2="23"/><line x1="584" x2="584" y2="3"/><line x1="584" x2="584" y1="26" y2="23"/><line x1="487" x2="487" y2="3"/><line x1="487" x2="487" y1="26" y2="23"/><line x1="390" x2="390" y2="3"/><line x1="390" x2="390" y1="26" y2="23"/><line x1="292" x2="292" y2="3"/><line x1="292" x2="292" y1="26" y2="23"/><line x1="195" x2="195" y2="3"/><line x1="195" x2="195" y1="26" y2="23"/><line x1="97" x2="97" y2="3"/><line x1="97" x2="97" y1="26" y2="23"/></g><g><g/><g transform="translate(49,-9)"><g transform="translate(682)"><text y="6">208</text></g><g transform="translate(0)"><text y="6">215</text></g></g><g transform="translate(49,11)"><g transform="translate(341)"><text y="6"><tspan>JOG_POS</tspan></text></g></g><g transform="translate(49,31)"/></g><g text-anchor="end"><g transform="translate(-4,13)"><text y="6">26</text></g></g></g><g transform="translate(16,90)"><g stroke="black" stroke-width="1" stroke-linecap="round"><line x2="779"/><line y2="26"/><line x2="779" y1="26" y2="26"/><line x1="779" x2="779" y2="26"/><line x1="682" x2="682" y2="3"/><line x1="682" x2="682" y1="26" y2="23"/><line x1="584" x2="584" y2="3"/><line x1="584" x2="584" y1="26" y2="23"/><line x1="487" x2="487" y2="3"/><line x1="487" x2="487" y1="26" y2="23"/><line x1="390" x2="390" y2="3"/><line x1="390" x2="390" y1="26" y2="23"/><line x1="292" x2="292" y2="3"/><line x1="292" x2="292" y1="26" y2="23"/><line x1="195" x2="195" y2="3"/><line x1="195" x2="195" y1="26" y2="23"/><line x1="97" x2="97" y2="3"/><line x1="97" x2="97" y1="26" y2="23"/></g><g><g/><g transform="translate(49,-9)"><g transform="translate(682)"><text y="6">216</text></g><g transform="translate(0)"><text y="6">223</text></g></g><g transform="translate(49,11)"><g transform="translate(341)"><text y="6"><tspan>JOG_SPEED</tspan></text></g></g><g transform="translate(49,31)"/></g><g text-anchor="end"><g transform="translate(-4,13)"><text y="6">27</text></g></g></g><g transform="translate(16,50)"><g stroke="black" stroke-width="1" stroke-linecap="round"><line x2="779"/><line y2="26"/><line x2="779" y1="26" y2="26"/><line x1="779" x2="779" y2="26"/><line x1="682" x2="682" y2="3"/><line x1="682" x2="682" y1="26" y2="23"/><line x1="584" x2="584" y2="3"/><line x1="584" x2="584" y1="26" y2="23"/><line x1="487" x2="487" y2="3"/><line x1="487" x2="487" y1="26" y2="23"/><line x1="390" x2="390" y2="3"/><line x1="390" x2="390" y1="26" y2="23"/><line x1="292" x2="292" y2="3"/><line x1="292" x2="292" y1="26" y2="23"/><line x1="195" x2="195" y2="3"/><line x1="195" x2="195" y1="26" y2="23"/><line x1="97" x2="97" y2="3"/><line x1="97" x2="97" y1="26" y2="23"/></g><g><g/><g transform="translate(49,-9)"><g transform="translate(682)"><text y="6">224</text></g><g transform="translate(0)"><text y="6">231</text></g></g><g transform="translate(49,11)"><g transform="translate(341)"><text y="6"><tspan>JOG_SPEED</tspan></text></g></g><g transform="translate(49,31)"/></g><g text-anchor="end"><g transform="translate(-4,13)"><text y="6">28</text></g></g></g><g transform="translate(16,10)"><g stroke="black" stroke-width="1" stroke-linecap="round"><line x2="779"/><line y2="26"/><line x2="779" y1="26" y2="26"/><line x1="779" x2="779" y2="26"/><line x1="682" x2="682" y2="26"/><line x1="584" x2="584" y2="26"/><line x1="487" x2="487" y2="26"/><line x1="390" x2="390" y2="26"/><line x1="292" x2="292" y2="3"/><line x1="292" x2="292" y1="26" y2="23"/><line x1="195" x2="195" y2="3"/><line x1="195" x2="195" y1="26" y2="23"/><line x1="97" x2="97" y2="3"/><line x1="97" x2="97" y1="26" y2="23"/></g><g><g><rect width="390" height="26" field="undefined" style="fill-opacity:0.1"/></g><g transform="translate(49,-9)"><g transform="translate(682)"><text y="6">232</text></g><g transform="translate(584)"><text y="6">233</text></g><g transform="translate(487)"><text y="6">234</text></g><g transform="translate(390)"><text y="6">235</text></g><g transform="translate(292)"><text y="6">236</text></g><g transform="translate(0)"><text y="6">239</text></g></g><g transform="translate(49,11)"><g transform="translate(682)"><text y="6"><tspan>JOG_START?</tspan></text></g><g transform="translate(584)"><text y="6"><tspan>JOG_PRESS</tspan></text></g><g transform="translate(487)"><text y="6"><tspan>JOG_DIR</tspan></text></g><g transform="translate(390)"><text y="6"><tspan>JOG_MOVING</tspan></text></g></g><g transform="translate(49,31)"/></g><g text-anchor="end"><g transform="translate(-4,13)"><text y="6">29</text></g></g></g></g></svg>